<svg xmlns="http://www.w3.org/2000/svg" viewBox="0 0 1800 1180" width="1800" height="1180" font-family="'Inter','Segoe UI','Helvetica Neue',Arial,sans-serif">
  <!-- Background -->
  <rect width="1800" height="1180" fill="#f8fafc"/>

  <!-- Title -->
  <text x="900" y="42" text-anchor="middle" font-size="26" font-weight="700" fill="#0f172a">
    Modèle conceptuel de données (MCD) — CYNA
  </text>
  <text x="900" y="68" text-anchor="middle" font-size="14" fill="#64748b">
    Entités et associations métier · notation (min, max)
  </text>

  <!-- ============ ZONES ============ -->
  <g id="zone-catalogue">
    <rect x="60" y="130" width="760" height="860" rx="12" fill="#f0f9ff" stroke="#94a3b8" stroke-width="1.5" stroke-dasharray="8 4"/>
    <text x="80" y="152" font-size="13" font-weight="700" fill="#0369a1">Domaine CATALOGUE</text>
  </g>

  <g id="zone-transaction">
    <rect x="880" y="130" width="840" height="700" rx="12" fill="#eef2ff" stroke="#94a3b8" stroke-width="1.5" stroke-dasharray="8 4"/>
    <text x="900" y="152" font-size="13" font-weight="700" fill="#4338ca">Domaine CLIENT / TRANSACTION</text>
  </g>

  <g id="zone-support">
    <rect x="1470" y="880" width="260" height="180" rx="12" fill="#f1f5f9" stroke="#94a3b8" stroke-width="1.5" stroke-dasharray="8 4"/>
    <text x="1490" y="902" font-size="13" font-weight="700" fill="#475569">Domaine SUPPORT (isolé)</text>
  </g>

  <!-- ============ ASSOCIATION LINES (drawn first, behind boxes) ============ -->
  <!-- 1. UTIL — passe — COMMANDE -->
  <line x1="1600" y1="400" x2="1350" y2="200" stroke="#334155" stroke-width="1.5"/>
  <!-- 2. COMMANDE — contient — LIGNE -->
  <line x1="1350" y1="200" x2="1000" y2="400" stroke="#334155" stroke-width="1.5"/>
  <!-- 3. LIGNE — porte sur — PRODUIT -->
  <line x1="1000" y1="400" x2="600" y2="550" stroke="#334155" stroke-width="1.5"/>
  <!-- 4. CATEGORIE — regroupe — PRODUIT -->
  <line x1="200" y1="220" x2="600" y2="550" stroke="#334155" stroke-width="1.5"/>
  <!-- 5. PRODUIT — a pour — TARIF -->
  <line x1="600" y1="550" x2="200" y2="880" stroke="#334155" stroke-width="1.5"/>
  <!-- 6. UTIL — souscrit — ABONNEMENT -->
  <line x1="1600" y1="400" x2="1000" y2="700" stroke="#334155" stroke-width="1.5"/>
  <!-- 7. ABONNEMENT — porte sur — TARIF -->
  <line x1="1000" y1="700" x2="200" y2="880" stroke="#334155" stroke-width="1.5"/>
  <!-- 8. UTIL — possède — ADRESSE -->
  <line x1="1600" y1="400" x2="1600" y2="700" stroke="#334155" stroke-width="1.5"/>

  <!-- ============ ENTITIES ============ -->

  <!-- CATEGORIE -->
  <g id="ent-cat">
    <rect x="90" y="160" width="220" height="120" rx="8" fill="#ffffff" stroke="#1e3a8a" stroke-width="1.5"/>
    <rect x="90" y="160" width="220" height="32" rx="8" fill="#1e3a8a"/>
    <rect x="90" y="185" width="220" height="7" fill="#1e3a8a"/>
    <text x="200" y="181" text-anchor="middle" font-size="14" font-weight="700" fill="#ffffff">CATÉGORIE</text>
    <text x="105" y="212" font-size="12" fill="#0f172a">· nom</text>
    <text x="105" y="232" font-size="12" fill="#0f172a">· ordre d'affichage</text>
    <text x="105" y="252" font-size="12" fill="#0f172a">· actif</text>
  </g>

  <!-- PRODUIT (central) -->
  <g id="ent-prod">
    <rect x="490" y="490" width="220" height="130" rx="8" fill="#ffffff" stroke="#1e3a8a" stroke-width="2"/>
    <rect x="490" y="490" width="220" height="32" rx="8" fill="#1e3a8a"/>
    <rect x="490" y="515" width="220" height="7" fill="#1e3a8a"/>
    <text x="600" y="511" text-anchor="middle" font-size="14" font-weight="700" fill="#ffffff">PRODUIT</text>
    <text x="505" y="542" font-size="12" fill="#0f172a">· nom</text>
    <text x="505" y="562" font-size="12" fill="#0f172a">· description</text>
    <text x="505" y="582" font-size="12" fill="#0f172a">· disponibilité</text>
    <text x="505" y="602" font-size="12" fill="#0f172a">· priorité</text>
  </g>

  <!-- TARIF -->
  <g id="ent-tarif">
    <rect x="90" y="820" width="220" height="120" rx="8" fill="#ffffff" stroke="#1e3a8a" stroke-width="1.5"/>
    <rect x="90" y="820" width="220" height="32" rx="8" fill="#1e3a8a"/>
    <rect x="90" y="845" width="220" height="7" fill="#1e3a8a"/>
    <text x="200" y="841" text-anchor="middle" font-size="14" font-weight="700" fill="#ffffff">TARIF</text>
    <text x="105" y="872" font-size="12" fill="#0f172a">· intervalle (mensuel / annuel)</text>
    <text x="105" y="892" font-size="12" fill="#0f172a">· montant</text>
  </g>

  <!-- LIGNE DE COMMANDE -->
  <g id="ent-ligne">
    <rect x="890" y="340" width="220" height="120" rx="8" fill="#ffffff" stroke="#1e3a8a" stroke-width="1.5"/>
    <rect x="890" y="340" width="220" height="32" rx="8" fill="#1e3a8a"/>
    <rect x="890" y="365" width="220" height="7" fill="#1e3a8a"/>
    <text x="1000" y="361" text-anchor="middle" font-size="14" font-weight="700" fill="#ffffff">LIGNE DE COMMANDE</text>
    <text x="905" y="392" font-size="12" fill="#0f172a">· quantité</text>
    <text x="905" y="412" font-size="12" fill="#0f172a">· prix unitaire</text>
  </g>

  <!-- COMMANDE -->
  <g id="ent-cmd">
    <rect x="1240" y="140" width="220" height="120" rx="8" fill="#ffffff" stroke="#1e3a8a" stroke-width="1.5"/>
    <rect x="1240" y="140" width="220" height="32" rx="8" fill="#1e3a8a"/>
    <rect x="1240" y="165" width="220" height="7" fill="#1e3a8a"/>
    <text x="1350" y="161" text-anchor="middle" font-size="14" font-weight="700" fill="#ffffff">COMMANDE</text>
    <text x="1255" y="192" font-size="12" fill="#0f172a">· montant total payé</text>
    <text x="1255" y="212" font-size="12" fill="#0f172a">· statut</text>
    <text x="1255" y="232" font-size="12" fill="#0f172a">· date</text>
  </g>

  <!-- UTILISATEUR -->
  <g id="ent-util">
    <rect x="1490" y="340" width="220" height="120" rx="8" fill="#ffffff" stroke="#1e3a8a" stroke-width="1.5"/>
    <rect x="1490" y="340" width="220" height="32" rx="8" fill="#1e3a8a"/>
    <rect x="1490" y="365" width="220" height="7" fill="#1e3a8a"/>
    <text x="1600" y="361" text-anchor="middle" font-size="14" font-weight="700" fill="#ffffff">UTILISATEUR</text>
    <text x="1505" y="392" font-size="12" fill="#0f172a">· rôle</text>
    <text x="1505" y="412" font-size="12" fill="#0f172a">· statut</text>
  </g>

  <!-- ADRESSE -->
  <g id="ent-adresse">
    <rect x="1490" y="640" width="220" height="120" rx="8" fill="#ffffff" stroke="#1e3a8a" stroke-width="1.5"/>
    <rect x="1490" y="640" width="220" height="32" rx="8" fill="#1e3a8a"/>
    <rect x="1490" y="665" width="220" height="7" fill="#1e3a8a"/>
    <text x="1600" y="661" text-anchor="middle" font-size="14" font-weight="700" fill="#ffffff">ADRESSE</text>
    <text x="1505" y="692" font-size="12" fill="#0f172a">· ligne</text>
    <text x="1505" y="712" font-size="12" fill="#0f172a">· ville</text>
    <text x="1505" y="732" font-size="12" fill="#0f172a">· code postal</text>
    <text x="1505" y="752" font-size="12" fill="#0f172a">· pays</text>
  </g>

  <!-- ABONNEMENT -->
  <g id="ent-abo">
    <rect x="890" y="640" width="220" height="120" rx="8" fill="#ffffff" stroke="#1e3a8a" stroke-width="1.5"/>
    <rect x="890" y="640" width="220" height="32" rx="8" fill="#1e3a8a"/>
    <rect x="890" y="665" width="220" height="7" fill="#1e3a8a"/>
    <text x="1000" y="661" text-anchor="middle" font-size="14" font-weight="700" fill="#ffffff">ABONNEMENT</text>
    <text x="905" y="692" font-size="12" fill="#0f172a">· statut</text>
    <text x="905" y="712" font-size="12" fill="#0f172a">· résiliation programmée</text>
    <text x="905" y="732" font-size="12" fill="#0f172a">· échéance courante</text>
  </g>

  <!-- MESSAGE DE CONTACT (isolé) -->
  <g id="ent-msg">
    <rect x="1490" y="910" width="220" height="130" rx="8" fill="#ffffff" stroke="#475569" stroke-width="1.5"/>
    <rect x="1490" y="910" width="220" height="32" rx="8" fill="#475569"/>
    <rect x="1490" y="935" width="220" height="7" fill="#475569"/>
    <text x="1600" y="931" text-anchor="middle" font-size="13" font-weight="700" fill="#ffffff">MESSAGE DE CONTACT</text>
    <text x="1505" y="962" font-size="12" fill="#0f172a">· nom</text>
    <text x="1505" y="982" font-size="12" fill="#0f172a">· email</text>
    <text x="1505" y="1002" font-size="12" fill="#0f172a">· sujet</text>
    <text x="1505" y="1022" font-size="12" fill="#0f172a">· statut</text>
  </g>

  <!-- ============ ASSOCIATION BOXES (verb boxes on line midpoints) ============ -->

  <!-- 1. UTIL — passe — COMMANDE @ (1475, 300) -->
  <rect x="1430" y="288" width="90" height="24" rx="12" fill="#eff6ff" stroke="#1e40af" stroke-width="1.5"/>
  <text x="1475" y="305" text-anchor="middle" font-size="12" font-weight="700" font-style="italic" fill="#1e3a8a">passe</text>

  <!-- 2. COMMANDE — contient — LIGNE @ (1175, 300) -->
  <rect x="1120" y="288" width="110" height="24" rx="12" fill="#eff6ff" stroke="#1e40af" stroke-width="1.5"/>
  <text x="1175" y="305" text-anchor="middle" font-size="12" font-weight="700" font-style="italic" fill="#1e3a8a">contient</text>

  <!-- 3. LIGNE — porte sur — PRODUIT @ (800, 475) -->
  <rect x="748" y="463" width="104" height="24" rx="12" fill="#eff6ff" stroke="#1e40af" stroke-width="1.5"/>
  <text x="800" y="480" text-anchor="middle" font-size="12" font-weight="700" font-style="italic" fill="#1e3a8a">porte sur</text>

  <!-- 4. CATEGORIE — regroupe — PRODUIT @ (400, 385) -->
  <rect x="345" y="373" width="110" height="24" rx="12" fill="#eff6ff" stroke="#1e40af" stroke-width="1.5"/>
  <text x="400" y="390" text-anchor="middle" font-size="12" font-weight="700" font-style="italic" fill="#1e3a8a">regroupe</text>

  <!-- 5. PRODUIT — a pour — TARIF @ (400, 715) -->
  <rect x="360" y="703" width="80" height="24" rx="12" fill="#eff6ff" stroke="#1e40af" stroke-width="1.5"/>
  <text x="400" y="720" text-anchor="middle" font-size="12" font-weight="700" font-style="italic" fill="#1e3a8a">a pour</text>

  <!-- 6. UTIL — souscrit — ABONNEMENT @ (1300, 550) -->
  <rect x="1252" y="538" width="96" height="24" rx="12" fill="#eff6ff" stroke="#1e40af" stroke-width="1.5"/>
  <text x="1300" y="555" text-anchor="middle" font-size="12" font-weight="700" font-style="italic" fill="#1e3a8a">souscrit</text>

  <!-- 7. ABONNEMENT — porte sur — TARIF @ (600, 790) -->
  <rect x="548" y="778" width="104" height="24" rx="12" fill="#eff6ff" stroke="#1e40af" stroke-width="1.5"/>
  <text x="600" y="795" text-anchor="middle" font-size="12" font-weight="700" font-style="italic" fill="#1e3a8a">porte sur</text>

  <!-- 8. UTIL — possède — ADRESSE @ (1600, 550) -->
  <rect x="1555" y="538" width="90" height="24" rx="12" fill="#eff6ff" stroke="#1e40af" stroke-width="1.5"/>
  <text x="1600" y="555" text-anchor="middle" font-size="12" font-weight="700" font-style="italic" fill="#1e3a8a">possède</text>

  <!-- ============ CARDINALITY LABELS (opaque backdrops) ============ -->

  <!-- 1. UTIL (1,1) — passe — (0,N) COMMANDE -->
  <rect x="1497" y="322" width="34" height="18" rx="3" fill="#ffffff"/>
  <text x="1514" y="336" text-anchor="middle" font-size="11" font-weight="700" fill="#0f172a">1,1</text>
  <rect x="1421" y="261" width="34" height="18" rx="3" fill="#ffffff"/>
  <text x="1438" y="275" text-anchor="middle" font-size="11" font-weight="700" fill="#0f172a">0,N</text>

  <!-- 2. COMMANDE (1,1) — contient — (1,N) LIGNE -->
  <rect x="1235" y="253" width="34" height="18" rx="3" fill="#ffffff"/>
  <text x="1252" y="267" text-anchor="middle" font-size="11" font-weight="700" fill="#0f172a">1,1</text>
  <rect x="1080" y="331" width="34" height="18" rx="3" fill="#ffffff"/>
  <text x="1097" y="345" text-anchor="middle" font-size="11" font-weight="700" fill="#0f172a">1,N</text>

  <!-- 3. LIGNE (1,N) — porte sur — (1,1) PRODUIT -->
  <rect x="865" y="437" width="34" height="18" rx="3" fill="#ffffff"/>
  <text x="882" y="451" text-anchor="middle" font-size="11" font-weight="700" fill="#0f172a">1,N</text>
  <rect x="708" y="497" width="34" height="18" rx="3" fill="#ffffff"/>
  <text x="725" y="511" text-anchor="middle" font-size="11" font-weight="700" fill="#0f172a">1,1</text>

  <!-- 4. CATEGORIE (1,1) — regroupe — (0,N) PRODUIT -->
  <rect x="305" y="303" width="34" height="18" rx="3" fill="#ffffff"/>
  <text x="322" y="317" text-anchor="middle" font-size="11" font-weight="700" fill="#0f172a">1,1</text>
  <rect x="463" y="443" width="34" height="18" rx="3" fill="#ffffff"/>
  <text x="480" y="457" text-anchor="middle" font-size="11" font-weight="700" fill="#0f172a">0,N</text>

  <!-- 5. PRODUIT (1,1) — a pour — (1,N) TARIF -->
  <rect x="463" y="641" width="34" height="18" rx="3" fill="#ffffff"/>
  <text x="480" y="655" text-anchor="middle" font-size="11" font-weight="700" fill="#0f172a">1,1</text>
  <rect x="305" y="773" width="34" height="18" rx="3" fill="#ffffff"/>
  <text x="322" y="787" text-anchor="middle" font-size="11" font-weight="700" fill="#0f172a">1,N</text>

  <!-- 6. UTIL (1,1) — souscrit — (0,N) ABONNEMENT -->
  <rect x="1435" y="467" width="34" height="18" rx="3" fill="#ffffff"/>
  <text x="1452" y="481" text-anchor="middle" font-size="11" font-weight="700" fill="#0f172a">1,1</text>
  <rect x="1132" y="617" width="34" height="18" rx="3" fill="#ffffff"/>
  <text x="1149" y="631" text-anchor="middle" font-size="11" font-weight="700" fill="#0f172a">0,N</text>

  <!-- 7. ABONNEMENT (0,N) — porte sur — (1,1) TARIF -->
  <rect x="785" y="737" width="34" height="18" rx="3" fill="#ffffff"/>
  <text x="802" y="751" text-anchor="middle" font-size="11" font-weight="700" fill="#0f172a">0,N</text>
  <rect x="385" y="827" width="34" height="18" rx="3" fill="#ffffff"/>
  <text x="402" y="841" text-anchor="middle" font-size="11" font-weight="700" fill="#0f172a">1,1</text>

  <!-- 8. UTIL (1,1) — possède — (0,N) ADRESSE -->
  <rect x="1583" y="467" width="34" height="18" rx="3" fill="#ffffff"/>
  <text x="1600" y="481" text-anchor="middle" font-size="11" font-weight="700" fill="#0f172a">1,1</text>
  <rect x="1583" y="617" width="34" height="18" rx="3" fill="#ffffff"/>
  <text x="1600" y="631" text-anchor="middle" font-size="11" font-weight="700" fill="#0f172a">0,N</text>

  <!-- ============ LEGEND ============ -->
  <g id="legend">
    <rect x="60" y="1090" width="1680" height="70" rx="8" fill="#f1f5f9" stroke="#cbd5e1"/>
    <text x="80" y="1113" font-size="12" font-weight="700" fill="#0f172a">Légende</text>

    <rect x="80" y="1128" width="90" height="24" rx="12" fill="#eff6ff" stroke="#1e40af" stroke-width="1.5"/>
    <text x="125" y="1145" text-anchor="middle" font-size="11" font-weight="700" font-style="italic" fill="#1e3a8a">verbe</text>
    <text x="185" y="1145" font-size="11" fill="#334155">association (verbe métier)</text>

    <rect x="410" y="1131" width="34" height="18" rx="3" fill="#ffffff" stroke="#94a3b8"/>
    <text x="427" y="1145" text-anchor="middle" font-size="11" font-weight="700" fill="#0f172a">0,N</text>
    <text x="460" y="1145" font-size="11" fill="#334155">cardinalité (min, max) — lecture « côté opposé » : combien de l'entité en face par occurrence de celle-ci</text>

    <text x="80" y="1145" font-size="11" fill="#334155" opacity="0"></text>

    <rect x="80" y="1128" width="90" height="24" rx="12" fill="#eff6ff" stroke="#1e40af" stroke-width="1.5" opacity="0"/>

    <text x="80" y="1153" font-size="11" font-weight="700" fill="#0369a1" opacity="0"></text>

    <text x="80" y="1153" font-size="11" fill="#334155" opacity="0"></text>
  </g>
</svg>
